<svg width="19" height="18" viewBox="0 0 19 18" fill="none" xmlns="http://www.w3.org/2000/svg">
<path d="M9.73273 0.417685C4.76273 0.287685 0.63273 4.21769 0.50273 9.18769C0.457985 11.005 0.964166 12.7932 1.95474 14.3175C2.9453 15.8417 4.3739 17.0305 6.05273 17.7277L7.94273 12.8277C6.11273 11.8277 5.42273 9.54769 6.41273 7.71769C6.88983 6.83956 7.69493 6.18583 8.6523 5.89918C9.60967 5.61253 10.6416 5.71625 11.5227 6.18769C12.121 6.51147 12.6207 6.99092 12.9689 7.57533C13.3172 8.15974 13.501 8.82739 13.501 9.50769C13.501 10.188 13.3172 10.8556 12.9689 11.44C12.6207 12.0244 12.121 12.5039 11.5227 12.8277L13.4127 17.7577C15.5937 16.7797 17.3032 14.9841 18.1727 12.7577C20.0127 8.13769 17.7727 2.90769 13.1527 1.05769C12.0645 0.62654 10.9033 0.409241 9.73273 0.417685Z" fill="#28A44B"/>
</svg>
